<svg xmlns="http://www.w3.org/2000/svg" width="828" height="179" viewBox="0 0 828 179" fill="none"><g clip-path="url(#clip0_382_579)"><path d="M464.76 26.1C460.699 23.9181 456.452 22.101 452.07 20.67C447.933 19.2492 443.594 18.4997 439.22 18.45C433.72 18.45 429.387 19.6733 426.22 22.12C424.676 23.2963 423.439 24.8278 422.614 26.5844C421.789 28.341 421.4 30.2709 421.48 32.21C421.472 33.6948 421.758 35.1665 422.323 36.5398C422.888 37.9131 423.72 39.1606 424.77 40.21C427.215 42.7051 430.092 44.7377 433.26 46.21C436.72 47.89 440.387 49.4967 444.26 51.03C447.664 52.2663 450.985 53.7227 454.2 55.39C457.442 57.045 460.465 59.0975 463.2 61.5C466 64.0414 468.193 67.1784 469.62 70.68C471.302 74.9354 472.112 79.4855 472 84.06C472.084 89.6977 470.572 95.2442 467.64 100.06C464.53 104.996 460.109 108.971 454.87 111.54C449.257 114.44 442.59 115.89 434.87 115.89C430.264 115.899 425.672 115.389 421.18 114.37C416.855 113.385 412.63 112.002 408.56 110.24C404.678 108.553 400.99 106.451 397.56 103.97L405.51 90.2C408.146 92.133 410.963 93.8074 413.92 95.2C417.04 96.7125 420.29 97.9408 423.63 98.87C426.74 99.7575 429.956 100.218 433.19 100.24C436.392 100.218 439.57 99.6777 442.6 98.64C445.641 97.6763 448.364 95.907 450.48 93.52C452.48 91.17 453.54 88.01 453.54 84.03C453.614 81.1179 452.634 78.2771 450.78 76.03C448.77 73.6902 446.363 71.7234 443.67 70.22C440.571 68.4624 437.338 66.9543 434 65.71C430.64 64.38 427.12 62.91 423.45 61.27C419.832 59.6841 416.418 57.6697 413.28 55.27C410.196 52.9151 407.664 49.9152 405.86 46.48C403.916 42.5361 402.972 38.1747 403.11 33.78C402.97 28.1662 404.401 22.6248 407.24 17.78C410.102 13.1404 414.217 9.40361 419.11 6.99999C424.549 4.26817 430.534 2.79837 436.62 2.69999C443.432 2.54866 450.223 3.50097 456.73 5.51999C461.958 7.26701 466.965 9.61613 471.65 12.52L464.76 26.1Z" fill="white" stroke="white" stroke-width="3.73" stroke-linejoin="round"></path><path d="M510 116.33C504.243 116.416 498.55 115.105 493.41 112.51C488.465 109.96 484.392 105.995 481.71 101.12C478.85 96.0667 477.42 89.82 477.42 82.38C477.42 75.0467 478.927 68.75 481.94 63.49C484.758 58.4329 488.89 54.2315 493.9 51.33C498.79 48.4948 504.348 47.0172 510 47.05C516.22 47.05 521.22 48.2733 525 50.72C528.567 52.9774 531.631 55.9458 534 59.44L533.09 61.89L534.81 50H550.72V114.69H533.43V98.9L535.12 103.03C534.71 103.64 533.92 104.63 532.74 106.03C531.244 107.712 529.567 109.225 527.74 110.54C525.389 112.257 522.815 113.646 520.09 114.67C516.858 115.843 513.437 116.406 510 116.33ZM514.74 102.26C517.622 102.297 520.483 101.752 523.15 100.66C525.647 99.6273 527.855 98.0001 529.58 95.92C531.358 93.7408 532.659 91.2131 533.4 88.5V74.43C532.636 71.8145 531.265 69.4162 529.4 67.43C527.497 65.4328 525.207 63.8439 522.67 62.76C519.985 61.623 517.095 61.0511 514.18 61.08C510.754 61.0438 507.382 61.9345 504.421 63.6579C501.46 65.3814 499.021 67.8733 497.36 70.87C495.583 74.0977 494.686 77.7361 494.76 81.42C494.701 85.1282 495.644 88.7836 497.49 92C499.242 95.0675 501.739 97.6437 504.75 99.49C507.764 101.335 511.236 102.295 514.77 102.26H514.74Z" fill="white" stroke="white" stroke-width="3.73" stroke-linejoin="round"></path><path d="M565.4 2H582.53V114.65H565.4V2Z" fill="white" stroke="white" stroke-width="3.73" stroke-linejoin="round"></path><path d="M617.55 117.4C612.209 117.581 607.013 115.64 603.1 112C601.207 110.192 599.699 108.02 598.668 105.614C597.637 103.208 597.103 100.618 597.1 98V50H614.23V91.71C614.175 94.5928 615.09 97.4106 616.83 99.71C618.457 101.71 621.057 102.71 624.63 102.71C627.885 102.748 631.05 101.64 633.57 99.58C636.338 97.2701 638.472 94.2932 639.77 90.93C641.327 86.9956 642.085 82.7905 642 78.56V50H659.13V114.69H643.7L642.33 100.47L642.79 102.61C641.458 105.57 639.531 108.225 637.13 110.41C634.637 112.682 631.726 114.448 628.56 115.61C625.027 116.863 621.298 117.469 617.55 117.4Z" fill="white" stroke="white" stroke-width="3.73" stroke-linejoin="round"></path><path d="M700.29 116.33C694.572 116.406 688.942 114.926 684 112.05C679.111 109.148 675.157 104.903 672.61 99.82C669.756 94.0749 668.339 87.7232 668.48 81.31C668.48 74.07 669.96 67.8767 672.92 62.73C675.726 57.7053 679.958 53.6238 685.08 51C690.456 48.2864 696.409 46.914 702.43 47C707.051 46.9843 711.628 47.8956 715.89 49.68C719.938 51.2863 723.479 53.953 726.14 57.4L725.83 63.21V2H742.83V114.65H725.68V100.12L727.36 104.25C724.018 107.783 720.085 110.706 715.74 112.89C710.94 115.259 705.641 116.439 700.29 116.33ZM705.8 101.65C708.877 101.716 711.936 101.168 714.8 100.04C717.374 98.9919 719.676 97.3709 721.53 95.3C723.446 93.1602 724.878 90.6329 725.73 87.89V74.27C724.968 71.6002 723.599 69.1428 721.73 67.09C719.769 65.0004 717.382 63.3566 714.73 62.27C711.923 61.0872 708.905 60.4884 705.86 60.51C702.344 60.4724 698.886 61.3993 695.86 63.19C692.863 64.9582 690.362 67.4556 688.59 70.45C686.694 73.6394 685.715 77.29 685.76 81C685.715 84.7027 686.665 88.3495 688.51 91.56C690.245 94.6302 692.751 97.1946 695.78 99C698.815 100.784 702.28 101.7 705.8 101.65Z" fill="white" stroke="white" stroke-width="3.73" stroke-linejoin="round"></path><path d="M91.34 105.93C89.0969 107.581 86.6871 108.992 84.15 110.14C80.4413 111.884 76.5735 113.267 72.6 114.27C67.7807 115.482 62.8169 116.02 57.85 115.87C49.8387 115.906 41.9028 114.321 34.52 111.21C27.8876 108.383 21.9046 104.228 16.94 99C12.098 93.8583 8.30404 87.8225 5.77 81.23C3.13728 74.3737 1.81439 67.0842 1.87 59.74C1.80919 51.8952 3.16423 44.1037 5.87 36.74C8.35415 29.9171 12.1947 23.6681 17.16 18.37C22.0826 13.209 28.0206 9.12324 34.6 6.37001C41.6275 3.45613 49.1728 1.99676 56.78 2.08001C63.136 1.99418 69.4631 2.95017 75.51 4.91001C80.4262 6.49276 85.1284 8.67591 89.51 11.41L82.51 28.08C79.1765 25.6843 75.5839 23.6717 71.8 22.08C67.5681 20.2729 63.0214 19.318 58.42 19.27C53.8818 19.1203 49.3587 19.8679 45.11 21.47C39.9396 23.4655 35.2871 26.6037 31.5 30.65C28.0417 34.3452 25.2956 38.6474 23.4 43.34C21.3886 48.2656 20.3691 53.5397 20.4 58.86C20.3533 64.308 21.2568 69.7224 23.07 74.86C24.7246 79.5735 27.3206 83.9012 30.7 87.58C34.0128 91.1503 38.054 93.9672 42.55 95.84C47.5021 97.8458 52.8079 98.8321 58.15 98.74C67.4791 98.9473 76.5814 95.8518 83.85 90L91.34 105.93Z" fill="#56E2E5" stroke="#56E2E5" stroke-width="3.73" stroke-linejoin="round"></path><path d="M166.43 49.95L124.68 145.7H108.01L123.02 112.01L93.02 49.95H112.29L131.58 92.82L150.68 49.95H166.43Z" fill="#56E2E5" stroke="#56E2E5" stroke-width="3.73" stroke-linejoin="round"></path><path d="M241.68 62.8C239.042 57.9191 235.098 53.8681 230.29 51.1C225.512 48.3903 220.102 46.993 214.61 47.05C209.262 46.9773 203.953 47.9805 199 50C195.064 51.5472 191.515 53.9363 188.6 57V1.87H171.6V114.65H188.73V106.19C191.144 108.959 194.049 111.258 197.3 112.97C201.888 115.304 206.984 116.459 212.13 116.33C217.989 116.37 223.759 114.896 228.88 112.05C234.043 109.194 238.336 104.992 241.3 99.89C244.433 94.63 246 88.3333 246 81C246 73.9733 244.56 67.9067 241.68 62.8ZM225.78 91.63C224.114 94.6831 221.654 97.2294 218.66 99C215.579 100.807 212.061 101.734 208.49 101.68C205.51 101.713 202.552 101.166 199.78 100.07C197.196 99.0359 194.879 97.4329 193 95.38C191.097 93.3133 189.661 90.8611 188.79 88.19V74C189.55 71.3694 190.944 68.9657 192.85 67C194.846 64.9887 197.227 63.4004 199.85 62.33C202.604 61.1604 205.568 60.5649 208.56 60.58C212.141 60.5251 215.665 61.478 218.73 63.33C221.699 65.1183 224.153 67.6477 225.85 70.67C227.572 73.8363 228.441 77.3963 228.37 81C228.439 84.7075 227.546 88.3696 225.78 91.63Z" fill="#56E2E5" stroke="#56E2E5" stroke-width="3.73" stroke-linejoin="round"></path><path d="M269.55 92.78C269.64 92.949 269.741 93.1126 269.85 93.27C269.864 93.2814 269.882 93.2876 269.9 93.2876C269.918 93.2876 269.936 93.2814 269.95 93.27C269.806 93.1154 269.673 92.9518 269.55 92.78Z" fill="#56E2E5" stroke="#56E2E5" stroke-width="3.73" stroke-linejoin="round"></path><path d="M361.27 49.36C357.676 51.0201 354.333 53.178 351.34 55.77C348.217 58.3492 345.755 61.6371 344.16 65.36L344.45 68.3L344 65.7C344.05 65.6 344.09 65.46 344.14 65.36L342.74 49.94H327.63V70.83C327.63 75.99 325.82 82.2 321.51 85.02L304.83 95.34L301.23 97.43C298.67 99.29 295.3 99.82 292.35 100.78C291.181 101.159 289.974 101.411 288.75 101.53C284.378 102.066 279.947 101.231 276.07 99.14C273.595 97.73 271.509 95.7265 270 93.31C269.986 93.3213 269.968 93.3275 269.95 93.3275C269.932 93.3275 269.914 93.3213 269.9 93.31C269.791 93.1526 269.69 92.989 269.6 92.82C269.721 93.0055 269.855 93.1825 270 93.35L319.73 76.63C317.797 67.23 313.943 59.9533 308.17 54.8C302.43 49.64 295.11 47.09 286.24 47.09C279.8 47.0047 273.451 48.6153 267.83 51.76C262.428 54.7089 257.868 58.9871 254.58 64.19C251.285 69.4595 249.577 75.5659 249.66 81.78C249.547 88.0237 251.023 94.1937 253.95 99.71C256.829 104.919 261.166 109.173 266.43 111.95C272.402 115.018 279.048 116.541 285.76 116.38C289.738 116.337 293.686 115.689 297.47 114.46C301.228 113.296 304.824 111.659 308.17 109.59L308.55 109.35L327.68 96.82V114.7H344.68V86.8C344.701 82.8171 345.733 78.9048 347.68 75.43C349.625 71.846 352.499 68.8513 356 66.76C359.829 64.5888 364.244 63.6758 368.62 64.15L369.68 47.05C366.747 47.2302 363.883 48.0168 361.27 49.36ZM266.48 80.68C266.394 77.0554 267.204 73.4656 268.84 70.23C270.315 67.2985 272.567 64.8286 275.35 63.09C278.18 61.3308 281.458 60.4278 284.79 60.49C289.27 60.49 292.787 61.6467 295.34 63.96C297.622 65.9707 299.391 68.4975 300.5 71.33L266.62 83.48C266.53 82.56 266.48 81.65 266.48 80.68ZM269 91.91C268.9 91.73 268.81 91.55 268.72 91.36C268.85 91.62 268.98 91.87 269.12 92.12L269 91.91Z" fill="#56E2E5" stroke="#56E2E5" stroke-width="3.73" stroke-linejoin="round"></path><path d="M270 93.31C269.986 93.3214 269.968 93.3276 269.95 93.3276C269.932 93.3276 269.914 93.3214 269.9 93.31C269.791 93.1526 269.69 92.989 269.6 92.82C269.723 92.9918 269.856 93.1554 270 93.31Z" fill="#56E2E5" stroke="#56E2E5" stroke-width="3.73" stroke-linejoin="round"></path><path d="M344.16 65.36C344.11 65.46 344.07 65.6 344.02 65.7L344.45 68.3L344.16 65.36Z" fill="#56E2E5" stroke="#56E2E5" stroke-width="3.73" stroke-linejoin="round"></path><path d="M258.43 140.38H283.43V145.21H273.34V177.92H268.34V145.21H258.47L258.43 140.38Z" fill="white"></path><path d="M297 178.76C296.103 178.797 295.208 178.657 294.366 178.349C293.523 178.04 292.75 177.568 292.09 176.96C291.462 176.361 290.96 175.641 290.617 174.844C290.273 174.047 290.094 173.188 290.09 172.32V156.43H294.97V170.6C294.987 171.627 295.338 172.621 295.97 173.43C296.339 173.827 296.792 174.137 297.294 174.34C297.797 174.542 298.339 174.631 298.88 174.6C300.031 174.61 301.154 174.237 302.07 173.54C303.071 172.778 303.866 171.778 304.38 170.63C304.989 169.322 305.293 167.893 305.27 166.45V156.45H310.1V177.94H305.68L305.27 172.65L305.58 173.65C305.115 174.642 304.463 175.535 303.66 176.28C302.789 177.082 301.77 177.707 300.66 178.12C299.49 178.556 298.249 178.773 297 178.76Z" fill="white"></path><path d="M346.93 178.34C345.413 178.342 343.908 178.068 342.49 177.53C341.118 177.041 339.893 176.212 338.93 175.12L340.93 172.32C341.757 173.108 342.702 173.763 343.73 174.26C344.603 174.683 345.56 174.905 346.53 174.91C347.183 174.92 347.833 174.832 348.46 174.65C349.01 174.503 349.504 174.197 349.88 173.77C350.26 173.322 350.456 172.747 350.43 172.16C350.451 171.817 350.395 171.473 350.265 171.154C350.135 170.836 349.935 170.551 349.68 170.32C349.116 169.852 348.473 169.489 347.78 169.25C347.02 168.977 346.19 168.717 345.29 168.47C343.75 168.023 342.354 167.182 341.24 166.03C340.304 164.993 339.803 163.636 339.84 162.24C339.832 161.12 340.126 160.018 340.69 159.05C341.308 158.017 342.197 157.173 343.26 156.61C344.537 155.924 345.97 155.58 347.42 155.61C348.773 155.591 350.121 155.773 351.42 156.15C352.637 156.538 353.765 157.164 354.74 157.99L352.82 160.99C352.203 160.338 351.448 159.832 350.61 159.51C349.877 159.203 349.094 159.033 348.3 159.01C347.708 159.007 347.119 159.105 346.56 159.3C346.064 159.464 345.618 159.75 345.26 160.13C344.928 160.512 344.753 161.005 344.77 161.51C344.737 161.834 344.784 162.16 344.906 162.462C345.028 162.763 345.221 163.03 345.47 163.24C346.031 163.712 346.675 164.075 347.37 164.31L349.7 165.14C350.688 165.43 351.633 165.85 352.51 166.39C353.306 166.88 353.988 167.535 354.51 168.31C355.037 169.168 355.299 170.163 355.26 171.17C355.271 172.412 354.957 173.636 354.35 174.72C353.712 175.841 352.755 176.746 351.6 177.32C350.147 178.027 348.546 178.377 346.93 178.34Z" fill="white"></path><path d="M374 178.44C372.096 178.463 370.214 178.02 368.52 177.15C366.875 176.278 365.514 174.952 364.6 173.33C363.637 171.405 363.14 169.28 363.151 167.128C363.161 164.975 363.678 162.856 364.66 160.94C365.613 159.257 367.016 157.872 368.71 156.94C370.41 156.006 372.321 155.524 374.26 155.54C376.066 155.483 377.847 155.964 379.38 156.92C380.675 157.728 381.753 158.841 382.52 160.16L382.21 160.94L382.68 156.43H387.14V177.92H382.31V172.32L382.88 173.56C382.605 174.044 382.269 174.491 381.88 174.89C381.317 175.491 380.697 176.037 380.03 176.52C379.23 177.107 378.347 177.573 377.41 177.9C376.313 178.274 375.159 178.457 374 178.44ZM375.3 174.44C376.426 174.459 377.542 174.23 378.57 173.77C379.521 173.337 380.352 172.677 380.99 171.85C381.643 170.991 382.094 169.997 382.31 168.94V164.73C382.049 163.721 381.552 162.789 380.86 162.01C380.17 161.232 379.321 160.611 378.37 160.19C377.371 159.753 376.291 159.531 375.2 159.54C373.952 159.526 372.722 159.845 371.639 160.466C370.556 161.087 369.659 161.986 369.04 163.07C368.365 164.258 368.02 165.604 368.04 166.97C368.028 168.275 368.357 169.561 368.996 170.7C369.634 171.838 370.56 172.79 371.68 173.46C372.767 174.113 374.013 174.452 375.28 174.44H375.3Z" fill="white"></path><path d="M398.44 137.73H403.33V177.92H398.44V137.73Z" fill="white"></path><path d="M421.56 178.76C420.663 178.797 419.768 178.657 418.926 178.349C418.083 178.04 417.31 177.568 416.65 176.96C416.02 176.362 415.517 175.643 415.174 174.845C414.83 174.048 414.652 173.189 414.65 172.32V156.43H419.53V170.6C419.547 171.627 419.898 172.621 420.53 173.43C420.899 173.827 421.351 174.138 421.854 174.341C422.357 174.543 422.899 174.631 423.44 174.6C424.591 174.609 425.713 174.236 426.63 173.54C427.626 172.773 428.419 171.774 428.94 170.63C429.546 169.321 429.847 167.892 429.82 166.45V156.45H434.65V177.94H430.24L429.82 172.65L430.14 173.65C429.675 174.644 429.019 175.538 428.21 176.28C427.34 177.083 426.32 177.708 425.21 178.12C424.043 178.555 422.806 178.772 421.56 178.76Z" fill="white"></path><path d="M454.79 178.44C452.894 178.472 451.025 177.981 449.39 177.02C447.775 176.034 446.456 174.632 445.57 172.96C444.592 171.096 444.103 169.014 444.15 166.91C444.088 164.772 444.606 162.657 445.65 160.79C446.608 159.136 448.011 157.784 449.7 156.89C451.465 155.973 453.431 155.509 455.42 155.54C457.097 155.54 458.754 155.912 460.27 156.63C461.723 157.285 462.97 158.322 463.88 159.63L463.62 161.35V137.73H468.45V177.92H463.62V172.58L464.19 173.93C463.099 175.279 461.736 176.383 460.19 177.17C458.521 178.03 456.667 178.466 454.79 178.44ZM456.3 174.34C457.475 174.364 458.639 174.114 459.7 173.61C460.661 173.151 461.51 172.489 462.19 171.67C462.879 170.827 463.368 169.839 463.62 168.78V164.68C463.351 163.659 462.843 162.717 462.14 161.93C461.438 161.138 460.571 160.51 459.6 160.09C458.558 159.642 457.434 159.42 456.3 159.44C455.043 159.434 453.806 159.754 452.71 160.37C451.615 160.987 450.704 161.884 450.07 162.97C449.42 164.142 449.079 165.46 449.079 166.8C449.079 168.14 449.42 169.458 450.07 170.63C450.711 171.736 451.619 172.664 452.71 173.33C453.79 173.993 455.033 174.342 456.3 174.34Z" fill="white"></path><path d="M508.23 178.44C506.325 178.465 504.443 178.022 502.75 177.15C501.105 176.278 499.744 174.952 498.83 173.33C497.811 171.444 497.311 169.322 497.38 167.18C497.318 165.004 497.835 162.85 498.88 160.94C499.833 159.257 501.236 157.872 502.93 156.94C504.634 156.007 506.548 155.525 508.49 155.54C510.292 155.485 512.071 155.965 513.6 156.92C514.897 157.728 515.978 158.84 516.75 160.16L516.43 160.94L516.9 156.43H521.37V177.92H516.54V172.32L517.11 173.56C516.837 174.046 516.501 174.493 516.11 174.89C515.55 175.491 514.934 176.037 514.27 176.52C513.468 177.104 512.585 177.568 511.65 177.9C510.549 178.274 509.392 178.457 508.23 178.44ZM509.53 174.44C510.656 174.459 511.772 174.23 512.8 173.77C513.748 173.336 514.575 172.677 515.21 171.85C515.866 170.992 516.321 169.998 516.54 168.94V164.73C516.275 163.721 515.775 162.788 515.08 162.01C514.392 161.23 513.542 160.609 512.59 160.19C511.591 159.752 510.511 159.53 509.42 159.54C508.164 159.523 506.926 159.848 505.84 160.48C504.769 161.101 503.883 161.995 503.27 163.07C502.595 164.258 502.25 165.604 502.27 166.97C502.263 168.299 502.608 169.607 503.27 170.76C503.904 171.875 504.817 172.806 505.92 173.46C507.01 174.113 508.259 174.452 509.53 174.44Z" fill="white"></path><path d="M559 178.76C558.103 178.797 557.208 178.657 556.366 178.349C555.523 178.04 554.75 177.568 554.09 176.96C553.462 176.361 552.96 175.641 552.617 174.844C552.273 174.047 552.094 173.188 552.09 172.32V156.43H557V170.6C557.017 171.627 557.368 172.621 558 173.43C558.369 173.827 558.822 174.137 559.325 174.34C559.827 174.542 560.369 174.631 560.91 174.6C562.061 174.61 563.184 174.237 564.1 173.54C565.102 172.776 565.899 171.777 566.42 170.63C567.021 169.32 567.322 167.891 567.3 166.45V156.45H572.13V177.94H567.71L567.3 172.65L567.61 173.65C567.145 174.642 566.493 175.535 565.69 176.28C564.819 177.082 563.8 177.707 562.69 178.12C561.51 178.561 560.259 178.778 559 178.76Z" fill="white"></path><path d="M587.89 156.43L588.25 161.67L588.1 160.84C588.767 159.239 589.935 157.899 591.43 157.02C593.077 156.043 594.965 155.547 596.88 155.59C598.718 155.509 600.515 156.156 601.88 157.39C602.521 157.979 603.031 158.697 603.376 159.496C603.721 160.296 603.892 161.159 603.88 162.03V177.92H599V163.7C599.007 162.666 598.653 161.662 598 160.86C597.612 160.467 597.142 160.164 596.623 159.972C596.105 159.78 595.551 159.704 595 159.75C593.807 159.73 592.637 160.079 591.65 160.75C590.608 161.464 589.782 162.45 589.26 163.6C588.666 164.923 588.373 166.36 588.4 167.81V177.88H583.52V156.43H587.89Z" fill="white"></path><path d="M652.13 175.9C651.096 176.733 649.916 177.367 648.65 177.77C647.361 178.206 646.011 178.432 644.65 178.44C642.516 178.485 640.404 178.004 638.5 177.04C636.76 176.152 635.309 174.785 634.32 173.1C633.277 171.276 632.755 169.201 632.81 167.1C632.76 165.006 633.32 162.942 634.42 161.16C635.454 159.521 636.894 158.178 638.6 157.26C640.318 156.349 642.235 155.878 644.18 155.89C645.742 155.867 647.296 156.104 648.78 156.59C650.086 157.018 651.296 157.697 652.34 158.59L649.9 161.7C649.2 161.188 648.441 160.762 647.64 160.43C646.692 160.027 645.671 159.823 644.64 159.83C643.403 159.829 642.19 160.175 641.14 160.83C640.092 161.461 639.229 162.358 638.64 163.43C638.025 164.569 637.712 165.846 637.73 167.14C637.713 168.431 638.038 169.704 638.67 170.83C639.283 171.928 640.177 172.842 641.26 173.48C642.225 174.008 643.29 174.331 644.386 174.429C645.482 174.527 646.586 174.398 647.63 174.05C648.386 173.783 649.095 173.398 649.73 172.91L652.13 175.9Z" fill="white"></path><path d="M661.33 137.73H666.21V177.92H661.33V137.73Z" fill="white"></path><path d="M677.22 148.63C677.216 148.263 677.295 147.9 677.45 147.567C677.606 147.235 677.835 146.942 678.12 146.71C678.668 146.212 679.38 145.934 680.12 145.93C680.862 145.926 681.577 146.205 682.12 146.71C682.398 146.946 682.622 147.24 682.774 147.572C682.926 147.904 683.003 148.265 683 148.63C683.017 149.009 682.947 149.386 682.794 149.733C682.642 150.08 682.411 150.387 682.12 150.63C681.569 151.121 680.857 151.391 680.12 151.39C679.384 151.381 678.676 151.112 678.12 150.63C677.823 150.391 677.587 150.085 677.43 149.738C677.274 149.39 677.202 149.011 677.22 148.63ZM677.53 156.43H682.41V177.92H677.53V156.43Z" fill="white"></path><path d="M711.23 175.9C710.196 176.733 709.016 177.367 707.75 177.77C706.461 178.206 705.111 178.432 703.75 178.44C701.616 178.485 699.504 178.004 697.6 177.04C695.86 176.152 694.409 174.785 693.42 173.1C692.377 171.276 691.855 169.201 691.91 167.1C691.86 165.006 692.42 162.942 693.52 161.16C694.551 159.519 695.992 158.175 697.7 157.26C699.417 156.347 701.335 155.876 703.28 155.89C704.842 155.867 706.396 156.104 707.88 156.59C709.186 157.018 710.396 157.697 711.44 158.59L709 161.72C708.299 161.21 707.54 160.784 706.74 160.45C705.792 160.047 704.771 159.843 703.74 159.85C702.5 159.85 701.284 160.196 700.23 160.85C699.188 161.485 698.329 162.381 697.74 163.45C697.125 164.589 696.812 165.866 696.83 167.16C696.813 168.451 697.138 169.724 697.77 170.85C698.38 171.95 699.274 172.865 700.36 173.5C701.324 174.027 702.386 174.349 703.481 174.447C704.575 174.545 705.678 174.417 706.72 174.07C707.478 173.801 708.19 173.416 708.83 172.93L711.23 175.9Z" fill="white"></path><path d="M720.43 177.92V137.73H725.31V177.92H720.43ZM723.8 171.07L723.33 166.39L736.33 155.96L739.33 158.5L723.8 171.07ZM730.55 163.64L740.37 177.92H734.71L727.28 166.39L730.55 163.64Z" fill="white"></path><path d="M747.77 173.2C748.014 172.943 748.307 172.737 748.632 172.595C748.956 172.452 749.306 172.376 749.66 172.37C750.346 172.398 750.993 172.697 751.46 173.2C751.734 173.456 751.95 173.766 752.097 174.11C752.243 174.454 752.316 174.826 752.31 175.2C752.324 175.575 752.255 175.949 752.108 176.295C751.961 176.64 751.74 176.949 751.46 177.2C750.973 177.664 750.332 177.931 749.66 177.95C748.958 177.946 748.284 177.678 747.77 177.2C747.487 176.951 747.264 176.643 747.115 176.297C746.966 175.951 746.896 175.576 746.91 175.2C746.904 174.825 746.977 174.452 747.125 174.108C747.273 173.763 747.493 173.453 747.77 173.2Z" fill="white"></path><path d="M706.67 89.21C710.823 89.21 714.19 85.8432 714.19 81.69C714.19 77.5368 710.823 74.17 706.67 74.17C702.517 74.17 699.15 77.5368 699.15 81.69C699.15 85.8432 702.517 89.21 706.67 89.21Z" fill="#56E2E5"></path><path d="M771.52 109.48V38.21C771.525 38.1501 771.525 38.0899 771.52 38.03C771.602 37.4791 771.843 36.9639 772.212 36.5468C772.581 36.1297 773.063 35.8286 773.6 35.68C774.097 35.5039 774.635 35.4813 775.145 35.615C775.655 35.7488 776.113 36.0327 776.46 36.43L790 50.29C797.647 58.19 805.313 66.0933 813 74L823.23 84.53C823.607 84.889 823.876 85.3456 824.009 85.8488C824.141 86.352 824.131 86.8821 823.98 87.38C823.824 88.0485 823.438 88.6409 822.89 89.0539C822.341 89.467 821.666 89.6744 820.98 89.64H803.75L803.84 89.87L809.25 103.07C810.47 106.03 811.683 108.987 812.89 111.94C813.054 112.307 813.143 112.703 813.151 113.105C813.159 113.506 813.086 113.906 812.937 114.279C812.787 114.652 812.565 114.991 812.282 115.276C811.999 115.562 811.662 115.787 811.29 115.94C809.96 116.53 808.63 117.12 807.29 117.68C805.725 118.427 804.123 119.094 802.49 119.68H801.83H801.76C801.234 119.607 800.737 119.392 800.325 119.057C799.912 118.722 799.599 118.28 799.42 117.78C796.553 110.82 793.687 103.85 790.82 96.87C790.82 96.81 790.77 96.74 790.73 96.65L790.57 96.82L783.3 104.3C781.05 106.62 778.78 108.94 776.54 111.3C776.192 111.669 775.753 111.94 775.268 112.085C774.782 112.231 774.267 112.246 773.773 112.13C773.28 112.013 772.826 111.769 772.457 111.422C772.087 111.074 771.816 110.636 771.67 110.15C771.61 109.88 771.57 109.68 771.52 109.48Z" stroke="white" stroke-width="7.47" stroke-miterlimit="10"></path><path d="M771.52 24.69V6.57999" stroke="white" stroke-width="3.44" stroke-miterlimit="10" stroke-linecap="round"></path><path d="M781.96 27.38L793.01 9.92999" stroke="white" stroke-width="3.44" stroke-miterlimit="10" stroke-linecap="round"></path><path d="M788.65 34.69H806.97" stroke="white" stroke-width="3.44" stroke-miterlimit="10" stroke-linecap="round"></path></g><defs><clipPath id="clip0_382_579"><rect width="827.83" height="178.75" fill="white"></rect></clipPath></defs></svg>